<?xml version="1.0" encoding="UTF-8" standalone="no"?>
<!-- Created with Inkscape (http://www.inkscape.org/) -->

<svg
   width="70.0px"
   height="70.0px"
   viewBox="0 0 70.0 70.0"
   version="1.1"
   id="SVGRoot"
   sodipodi:docname="blender.svg"
   inkscape:version="1.2.1 (9c6d41e410, 2022-07-14)"
   xmlns:inkscape="http://www.inkscape.org/namespaces/inkscape"
   xmlns:sodipodi="http://sodipodi.sourceforge.net/DTD/sodipodi-0.dtd"
   xmlns:xlink="http://www.w3.org/1999/xlink"
   xmlns="http://www.w3.org/2000/svg"
   xmlns:svg="http://www.w3.org/2000/svg">
  <sodipodi:namedview
     id="namedview765"
     pagecolor="#505050"
     bordercolor="#eeeeee"
     borderopacity="1"
     inkscape:showpageshadow="0"
     inkscape:pageopacity="0"
     inkscape:pagecheckerboard="0"
     inkscape:deskcolor="#505050"
     inkscape:document-units="px"
     showgrid="true"
     inkscape:zoom="6.2502245"
     inkscape:cx="44.638397"
     inkscape:cy="33.758788"
     inkscape:window-width="1920"
     inkscape:window-height="1057"
     inkscape:window-x="-8"
     inkscape:window-y="-8"
     inkscape:window-maximized="1"
     inkscape:current-layer="layer1">
    <inkscape:grid
       type="xygrid"
       id="grid888" />
  </sodipodi:namedview>
  <defs
     id="defs760">
    <linearGradient
       inkscape:collect="always"
       xlink:href="#linearGradient58406"
       id="linearGradient59967"
       x1="243.05354"
       y1="-332.35831"
       x2="258.37338"
       y2="-332.35831"
       gradientUnits="userSpaceOnUse" />
    <linearGradient
       inkscape:collect="always"
       id="linearGradient58406">
      <stop
         style="stop-color:#53ceda;stop-opacity:1;"
         offset="0"
         id="stop58402" />
      <stop
         style="stop-color:#977fe5;stop-opacity:1;"
         offset="1"
         id="stop58404" />
    </linearGradient>
    <linearGradient
       inkscape:collect="always"
       xlink:href="#linearGradient58406"
       id="linearGradient58408"
       x1="226.10359"
       y1="-357.84409"
       x2="266.3681"
       y2="-315.82892"
       gradientUnits="userSpaceOnUse" />
    <clipPath
       clipPathUnits="userSpaceOnUse"
       id="clipPath57573">
      <path
         d="m 235.7153,-332.31482 c 0.20487,-3.59303 1.99077,-6.76781 4.69665,-9.01108 2.64792,-2.20525 6.20423,-3.555 10.10844,-3.555 3.88489,0 7.4412,1.34786 10.08911,3.555 2.70588,2.24327 4.48404,5.41805 4.69666,9.01108 0.20487,3.68807 -1.30463,7.129 -3.94289,9.67644 -2.70589,2.58545 -6.53278,4.22038 -10.84288,4.22038 -4.31009,0 -8.15633,-1.62352 -10.84289,-4.22038 -2.6479,-2.54744 -4.15548,-5.96936 -3.94288,-9.65744 z"
         style="clip-rule:evenodd;display:none;fill:#265787;fill-rule:nonzero;stroke-width:1.91686;stroke-linejoin:round;stroke-miterlimit:2"
         id="path57575" />
      <path
         id="lpe_path-effect57577"
         style="clip-rule:evenodd;fill:#265787;fill-rule:nonzero;stroke-width:1.91686;stroke-linejoin:round;stroke-miterlimit:2"
         class="powerclip"
         d="m 208.61428,-364.71625 h 66.70486 V -308.66 h -66.70486 z m 27.10102,32.40143 0.0193,0.019 c -0.2126,3.68808 1.29498,7.11 3.94288,9.65744 2.68656,2.59686 6.5328,4.22038 10.84289,4.22038 4.3101,0 8.13699,-1.63493 10.84288,-4.22038 2.63826,-2.54744 4.14776,-5.98837 3.94289,-9.67644 -0.21262,-3.59303 -1.99078,-6.76781 -4.69666,-9.01108 -2.64791,-2.20714 -6.20422,-3.555 -10.08911,-3.555 -3.90421,0 -7.46052,1.34975 -10.10844,3.555 -2.70588,2.24327 -4.49178,5.41805 -4.69665,9.01108 z" />
    </clipPath>
    <inkscape:path-effect
       effect="powerclip"
       id="path-effect57577"
       is_visible="true"
       lpeversion="1"
       inverse="true"
       flatten="false"
       hide_clip="false"
       message="Use fill-rule evenodd on &lt;b&gt;fill and stroke&lt;/b&gt; dialog if no flatten result after convert clip to paths." />
  </defs>
  <g
     inkscape:label="Layer 1"
     inkscape:groupmode="layer"
     id="layer1">
    <g
       style="clip-rule:evenodd;fill-rule:evenodd;stroke-linejoin:round;stroke-miterlimit:2"
       id="g683"
       transform="matrix(0.38897195,0,0,0.38897195,-0.24452904,5.9675183)">
      <g
         transform="matrix(0.281,0,0,0.281,-41.8,-43.7)"
         id="g669">
        <g
   transform="matrix(21.6,0,0,21.6,-4857,7665)"
   id="g661">
            
        </g>

        <g
   transform="matrix(11.1,0,0,11.1,-2215,4153)"
   id="g667">
            <path
   d="m 243.05382,-332.7083 c 0.106,-1.89 1.03,-3.56 2.43,-4.74 1.37,-1.16 3.21,-1.87 5.23,-1.87 2.01,0 3.85,0.709 5.22,1.87 1.4,1.18 2.32,2.85 2.43,4.74 0.106,1.94 -0.675,3.75 -2.04,5.09 -1.4,1.36 -3.38,2.22 -5.61,2.22 -2.23,0 -4.22,-0.854 -5.61,-2.22 -1.37,-1.34 -2.15,-3.14 -2.04,-5.08 z"
   style="fill:url(#linearGradient59967);fill-opacity:1;fill-rule:nonzero"
   id="path2798" />

            <path
   d="m 231,-330 c 0.013,0.74 0.249,2.18 0.603,3.3 0.744,2.38 2.01,4.58 3.76,6.51 1.8,1.99 4.02,3.59 6.58,4.73 2.69,1.19 5.61,1.8 8.64,1.8 3.03,-0.004 5.95,-0.624 8.64,-1.83 2.56,-1.15 4.78,-2.75 6.58,-4.75 1.76,-1.95 3.02,-4.15 3.76,-6.53 0.375,-1.2 0.612,-2.42 0.707,-3.64 0.093,-1.2 0.054,-2.41 -0.117,-3.62 -0.334,-2.35 -1.15,-4.56 -2.4,-6.56 -1.14,-1.85 -2.62,-3.46 -4.38,-4.82 l 0.004,-0.003 -17.7,-13.6 c -0.016,-0.012 -0.029,-0.025 -0.046,-0.036 -1.16,-0.892 -3.12,-0.889 -4.39,0.005 -1.29,0.904 -1.44,2.4 -0.29,3.34 l -0.005,0.005 7.39,6.01 -22.5,0.024 h -0.03 c -1.86,0.002 -3.65,1.22 -4,2.77 -0.364,1.57 0.9,2.88 2.84,2.88 l -0.003,0.007 11.4,-0.022 -20.4,15.6 c -0.026,0.019 -0.054,0.039 -0.078,0.058 -1.92,1.47 -2.54,3.92 -1.33,5.46 1.23,1.57 3.84,1.58 5.78,0.009 l 11.1,-9.1 c 0,0 -0.162,1.23 -0.149,1.96 z m 28.6,4.11 c -2.29,2.33 -5.5,3.66 -8.96,3.66 -3.47,0.006 -6.68,-1.3 -8.97,-3.63 -1.12,-1.14 -1.94,-2.44 -2.45,-3.83 -0.497,-1.37 -0.69,-2.82 -0.562,-4.28 0.121,-1.43 0.547,-2.8 1.23,-4.03 0.668,-1.21 1.59,-2.31 2.72,-3.24 2.23,-1.81 5.06,-2.8 8.02,-2.8 2.97,-0.004 5.8,0.969 8.03,2.78 1.13,0.924 2.05,2.02 2.72,3.23 0.683,1.23 1.11,2.59 1.23,4.03 0.126,1.46 -0.067,2.91 -0.564,4.28 -0.508,1.4 -1.33,2.7 -2.45,3.84 z"
   style="fill:url(#linearGradient58408);fill-opacity:1;fill-rule:nonzero"
   id="path2795"
   clip-path="url(#clipPath57573)"
   inkscape:path-effect="#path-effect57577"
   inkscape:original-d="m 231,-330 c 0.013,0.74 0.249,2.18 0.603,3.3 0.744,2.38 2.01,4.58 3.76,6.51 1.8,1.99 4.02,3.59 6.58,4.73 2.69,1.19 5.61,1.8 8.64,1.8 3.03,-0.004 5.95,-0.624 8.64,-1.83 2.56,-1.15 4.78,-2.75 6.58,-4.75 1.76,-1.95 3.02,-4.15 3.76,-6.53 0.375,-1.2 0.612,-2.42 0.707,-3.64 0.093,-1.2 0.054,-2.41 -0.117,-3.62 -0.334,-2.35 -1.15,-4.56 -2.4,-6.56 -1.14,-1.85 -2.62,-3.46 -4.38,-4.82 l 0.004,-0.003 -17.7,-13.6 c -0.016,-0.012 -0.029,-0.025 -0.046,-0.036 -1.16,-0.892 -3.12,-0.889 -4.39,0.005 -1.29,0.904 -1.44,2.4 -0.29,3.34 l -0.005,0.005 7.39,6.01 -22.5,0.024 h -0.03 c -1.86,0.002 -3.65,1.22 -4,2.77 -0.364,1.57 0.9,2.88 2.84,2.88 l -0.003,0.007 11.4,-0.022 -20.4,15.6 c -0.026,0.019 -0.054,0.039 -0.078,0.058 -1.92,1.47 -2.54,3.92 -1.33,5.46 1.23,1.57 3.84,1.58 5.78,0.009 l 11.1,-9.1 c 0,0 -0.162,1.23 -0.149,1.96 z m 28.6,4.11 c -2.29,2.33 -5.5,3.66 -8.96,3.66 -3.47,0.006 -6.68,-1.3 -8.97,-3.63 -1.12,-1.14 -1.94,-2.44 -2.45,-3.83 -0.497,-1.37 -0.69,-2.82 -0.562,-4.28 0.121,-1.43 0.547,-2.8 1.23,-4.03 0.668,-1.21 1.59,-2.31 2.72,-3.24 2.23,-1.81 5.06,-2.8 8.02,-2.8 2.97,-0.004 5.8,0.969 8.03,2.78 1.13,0.924 2.05,2.02 2.72,3.23 0.683,1.23 1.11,2.59 1.23,4.03 0.126,1.46 -0.067,2.91 -0.564,4.28 -0.508,1.4 -1.33,2.7 -2.45,3.84 z" />

        </g>

    </g>
    </g>
  </g>
</svg>
