<?xml version="1.0" encoding="UTF-8" standalone="no"?>
<!-- Created with Inkscape (http://www.inkscape.org/) -->

<svg
   width="70.0px"
   height="70.0px"
   viewBox="0 0 70.0 70.0"
   version="1.1"
   id="SVGRoot"
   sodipodi:docname="csharp.svg"
   inkscape:version="1.2.1 (9c6d41e410, 2022-07-14)"
   xmlns:inkscape="http://www.inkscape.org/namespaces/inkscape"
   xmlns:sodipodi="http://sodipodi.sourceforge.net/DTD/sodipodi-0.dtd"
   xmlns:xlink="http://www.w3.org/1999/xlink"
   xmlns="http://www.w3.org/2000/svg"
   xmlns:svg="http://www.w3.org/2000/svg">
  <sodipodi:namedview
     id="namedview765"
     pagecolor="#505050"
     bordercolor="#eeeeee"
     borderopacity="1"
     inkscape:showpageshadow="0"
     inkscape:pageopacity="0"
     inkscape:pagecheckerboard="0"
     inkscape:deskcolor="#505050"
     inkscape:document-units="px"
     showgrid="true"
     inkscape:zoom="6.2502245"
     inkscape:cx="25.279092"
     inkscape:cy="34.558759"
     inkscape:window-width="1920"
     inkscape:window-height="1057"
     inkscape:window-x="-8"
     inkscape:window-y="-8"
     inkscape:window-maximized="1"
     inkscape:current-layer="layer1">
    <inkscape:grid
       type="xygrid"
       id="grid888" />
  </sodipodi:namedview>
  <defs
     id="defs760">
    <clipPath
       clipPathUnits="userSpaceOnUse"
       id="clipPath57573">
      <path
         d="m 235.7153,-332.31482 c 0.20487,-3.59303 1.99077,-6.76781 4.69665,-9.01108 2.64792,-2.20525 6.20423,-3.555 10.10844,-3.555 3.88489,0 7.4412,1.34786 10.08911,3.555 2.70588,2.24327 4.48404,5.41805 4.69666,9.01108 0.20487,3.68807 -1.30463,7.129 -3.94289,9.67644 -2.70589,2.58545 -6.53278,4.22038 -10.84288,4.22038 -4.31009,0 -8.15633,-1.62352 -10.84289,-4.22038 -2.6479,-2.54744 -4.15548,-5.96936 -3.94288,-9.65744 z"
         style="clip-rule:evenodd;display:block;fill:#265787;fill-rule:nonzero;stroke-width:1.91686;stroke-linejoin:round;stroke-miterlimit:2"
         id="path57575" />
    </clipPath>
    <inkscape:path-effect
       effect="powerclip"
       id="path-effect57577"
       is_visible="true"
       lpeversion="1"
       inverse="true"
       flatten="false"
       hide_clip="false"
       message="Use fill-rule evenodd on &lt;b&gt;fill and stroke&lt;/b&gt; dialog if no flatten result after convert clip to paths." />
    <linearGradient
       inkscape:collect="always"
       xlink:href="#linearGradient67000"
       id="linearGradient65542"
       x1="959.5293"
       y1="995.51404"
       x2="293.97604"
       y2="258.28583"
       gradientUnits="userSpaceOnUse" />
    <linearGradient
       inkscape:collect="always"
       id="linearGradient67000">
      <stop
         style="stop-color:#876be9;stop-opacity:1"
         offset="0"
         id="stop66996" />
      <stop
         style="stop-color:#ff909c;stop-opacity:1;"
         offset="1"
         id="stop66998" />
    </linearGradient>
    <clipPath
       clipPathUnits="userSpaceOnUse"
       id="clipPath34195">
      <path
         d="m 894.32109,448.69268 c 0,-11.46873 -2.47809,-21.80968 -7.62544,-30.4589 -4.95687,-8.64849 -12.39182,-15.79293 -22.30494,-21.43344 -82.35873,-46.81662 -164.90802,-93.63233 -247.26605,-140.44887 -22.30618,-12.59727 -43.6585,-12.22109 -65.77281,0.56369 -32.79081,18.99025 -197.12662,111.87007 -245.93176,139.88496 -20.20852,11.46867 -29.93108,29.14261 -29.93108,52.08083 v 282.77703 c 0,11.28104 2.47817,21.24574 7.24448,29.89503 4.95687,8.83693 12.58292,16.35763 22.6866,22.18587 48.99632,28.01482 213.14095,120.70707 245.93176,139.88491 22.11431,12.78263 43.65718,13.34655 65.77281,0.56338 82.35803,-47.0042 164.90732,-93.63224 247.26605,-140.44875 10.29415,-5.82826 17.72973,-13.16124 22.68598,-22.18591 4.76631,-8.64928 7.2444,-18.614 7.2444,-29.89501 z"
         style="display:none;fill:#000000;stroke-width:6.28601"
         id="path34197" />
      <path
         id="lpe_path-effect34199"
         style="fill:#000000;stroke-width:6.28601"
         class="powerclip"
         d="M 199.925,152.74507 H 967.541 V 1014.8088 H 199.925 Z m 694.39609,295.94761 c 0,-11.46873 -2.47809,-21.80968 -7.62544,-30.4589 -4.95687,-8.64849 -12.39182,-15.79293 -22.30494,-21.43344 -82.35873,-46.81662 -164.90802,-93.63233 -247.26605,-140.44887 -22.30618,-12.59727 -43.6585,-12.22109 -65.77281,0.56369 -32.79081,18.99025 -197.12662,111.87007 -245.93176,139.88496 -20.20852,11.46867 -29.93108,29.14261 -29.93108,52.08083 v 282.77703 c 0,11.28104 2.47817,21.24574 7.24448,29.89503 4.95687,8.83693 12.58292,16.35763 22.6866,22.18587 48.99632,28.01482 213.14095,120.70707 245.93176,139.88491 22.11431,12.78263 43.65718,13.34655 65.77281,0.56338 82.35803,-47.0042 164.90732,-93.63224 247.26605,-140.44875 10.29415,-5.82826 17.72973,-13.16124 22.68598,-22.18591 4.76631,-8.64928 7.2444,-18.614 7.2444,-29.89501 z" />
    </clipPath>
    <inkscape:path-effect
       effect="powerclip"
       id="path-effect34199"
       is_visible="true"
       lpeversion="1"
       inverse="true"
       flatten="false"
       hide_clip="false"
       message="Use fill-rule evenodd on &lt;b&gt;fill and stroke&lt;/b&gt; dialog if no flatten result after convert clip to paths." />
    <linearGradient
       inkscape:collect="always"
       xlink:href="#linearGradient67000"
       id="linearGradient2137"
       gradientUnits="userSpaceOnUse"
       x1="959.5293"
       y1="995.51404"
       x2="293.97604"
       y2="258.28583" />
    <linearGradient
       inkscape:collect="always"
       xlink:href="#linearGradient67000"
       id="linearGradient2139"
       gradientUnits="userSpaceOnUse"
       x1="959.5293"
       y1="995.51404"
       x2="293.97604"
       y2="258.28583" />
    <linearGradient
       inkscape:collect="always"
       xlink:href="#linearGradient67000"
       id="linearGradient2141"
       gradientUnits="userSpaceOnUse"
       x1="959.5293"
       y1="995.51404"
       x2="293.97604"
       y2="258.28583" />
    <linearGradient
       inkscape:collect="always"
       xlink:href="#linearGradient67000"
       id="linearGradient2143"
       gradientUnits="userSpaceOnUse"
       x1="959.5293"
       y1="995.51404"
       x2="293.97604"
       y2="258.28583" />
  </defs>
  <g
     inkscape:label="Layer 1"
     inkscape:groupmode="layer"
     id="layer1">
    <g
       style="fill:url(#linearGradient65542);fill-opacity:1"
       id="g615"
       transform="matrix(0.0813162,0,0,0.0813162,-12.588199,-12.426194)">
      <path
         d="m 962.541,407.983 c 0,-14.237 -3.034,-27.074 -9.336,-37.811 -6.068,-10.736 -15.171,-19.605 -27.307,-26.607 -100.829,-58.117 -201.891,-116.233 -302.72,-174.35 -27.308,-15.638 -53.449,-15.171 -80.523,0.7 -40.145,23.574 -241.336,138.873 -301.086,173.65 -24.741,14.237 -36.644,36.177 -36.644,64.652 V 759.25 c 0,14.004 3.034,26.374 8.869,37.111 6.069,10.97 15.405,20.306 27.775,27.541 59.984,34.777 260.941,149.843 301.086,173.65 27.074,15.868 53.448,16.568 80.523,0.7 100.829,-58.35 201.891,-116.233 302.72,-174.35 12.603,-7.235 21.706,-16.338 27.774,-27.541 5.835,-10.737 8.869,-23.107 8.869,-37.111 z"
         fill="#9a4993"
         id="path2747"
         clip-path="url(#clipPath34195)"
         style="fill:url(#linearGradient2137);fill-opacity:1"
         inkscape:original-d="m 962.541,407.983 c 0,-14.237 -3.034,-27.074 -9.336,-37.811 -6.068,-10.736 -15.171,-19.605 -27.307,-26.607 -100.829,-58.117 -201.891,-116.233 -302.72,-174.35 -27.308,-15.638 -53.449,-15.171 -80.523,0.7 -40.145,23.574 -241.336,138.873 -301.086,173.65 -24.741,14.237 -36.644,36.177 -36.644,64.652 V 759.25 c 0,14.004 3.034,26.374 8.869,37.111 6.069,10.97 15.405,20.306 27.775,27.541 59.984,34.777 260.941,149.843 301.086,173.65 27.074,15.868 53.448,16.568 80.523,0.7 100.829,-58.35 201.891,-116.233 302.72,-174.35 12.603,-7.235 21.706,-16.338 27.774,-27.541 5.835,-10.737 8.869,-23.107 8.869,-37.111 z"
         inkscape:path-effect="#path-effect34199" />
      <g
         fill="#ffffff"
         id="g600"
         transform="translate(604.92778,-510.24343)"
         style="fill:url(#linearGradient2143);fill-opacity:1">
        <path
           d="m 70.998155,1161.1605 c -20.99586,37.2004 -60.935124,62.5339 -106.808808,62.5339 -45.644873,0 -85.355327,-24.8769 -106.352167,-61.8494 -10.2701,-18.0292 -16.20452,-38.5694 -16.20452,-60.7073 0,-67.7829 54.77385,-122.55666 122.556687,-122.55666 45.1882288,0 84.671826,24.64796 105.896497,61.16386 L 177.12248,978.1244 C 134.44531,904.63693 55.022449,855.11205 -36.038486,855.11205 c -136.022314,0 -246.025674,110.23217 -246.025674,246.02565 0,44.5037 11.86688,86.4974 32.63589,122.5567 42.44934,73.7162 122.32787,123.4689 213.617617,123.4689 91.518557,0 171.397083,-49.9805 213.846423,-124.1534 z M 206.335,1042.9405 h -24.4202 v 117.9922 h 24.4202 z m 54.08938,0 h -24.42021 v 117.9922 h 24.42021 z"
           id="path2735"
           style="fill:url(#linearGradient2139);fill-opacity:1;stroke-width:0.977825" />
        <path
           d="M 280.28009,1062.7962 H 162.2879 v 24.4202 h 117.99219 z m 0,53.8605 H 162.2879 v 24.4202 h 117.99219 z"
           id="path2732"
           style="fill:url(#linearGradient2141);fill-opacity:1;stroke-width:0.977825" />
      </g>
    </g>
  </g>
</svg>
