<?xml version="1.0" encoding="UTF-8" standalone="no"?>
<!-- Created with Inkscape (http://www.inkscape.org/) -->

<svg
   width="70.0px"
   height="70.0px"
   viewBox="0 0 70.0 70.0"
   version="1.1"
   id="SVGRoot"
   sodipodi:docname="html.svg"
   inkscape:version="1.2.1 (9c6d41e410, 2022-07-14)"
   xmlns:inkscape="http://www.inkscape.org/namespaces/inkscape"
   xmlns:sodipodi="http://sodipodi.sourceforge.net/DTD/sodipodi-0.dtd"
   xmlns:xlink="http://www.w3.org/1999/xlink"
   xmlns="http://www.w3.org/2000/svg"
   xmlns:svg="http://www.w3.org/2000/svg">
  <sodipodi:namedview
     id="namedview765"
     pagecolor="#505050"
     bordercolor="#eeeeee"
     borderopacity="1"
     inkscape:showpageshadow="0"
     inkscape:pageopacity="0"
     inkscape:pagecheckerboard="0"
     inkscape:deskcolor="#505050"
     inkscape:document-units="px"
     showgrid="true"
     inkscape:zoom="6.2502245"
     inkscape:cx="25.279092"
     inkscape:cy="34.558759"
     inkscape:window-width="1920"
     inkscape:window-height="1057"
     inkscape:window-x="-8"
     inkscape:window-y="-8"
     inkscape:window-maximized="1"
     inkscape:current-layer="layer1">
    <inkscape:grid
       type="xygrid"
       id="grid888" />
  </sodipodi:namedview>
  <defs
     id="defs760">
    <clipPath
       clipPathUnits="userSpaceOnUse"
       id="clipPath57573">
      <path
         d="m 235.7153,-332.31482 c 0.20487,-3.59303 1.99077,-6.76781 4.69665,-9.01108 2.64792,-2.20525 6.20423,-3.555 10.10844,-3.555 3.88489,0 7.4412,1.34786 10.08911,3.555 2.70588,2.24327 4.48404,5.41805 4.69666,9.01108 0.20487,3.68807 -1.30463,7.129 -3.94289,9.67644 -2.70589,2.58545 -6.53278,4.22038 -10.84288,4.22038 -4.31009,0 -8.15633,-1.62352 -10.84289,-4.22038 -2.6479,-2.54744 -4.15548,-5.96936 -3.94288,-9.65744 z"
         style="clip-rule:evenodd;display:block;fill:#265787;fill-rule:nonzero;stroke-width:1.91686;stroke-linejoin:round;stroke-miterlimit:2"
         id="path57575" />
    </clipPath>
    <inkscape:path-effect
       effect="powerclip"
       id="path-effect57577"
       is_visible="true"
       lpeversion="1"
       inverse="true"
       flatten="false"
       hide_clip="false"
       message="Use fill-rule evenodd on &lt;b&gt;fill and stroke&lt;/b&gt; dialog if no flatten result after convert clip to paths." />
    <clipPath
       clipPathUnits="userSpaceOnUse"
       id="clipPath34195">
      <path
         d="m 894.32109,448.69268 c 0,-11.46873 -2.47809,-21.80968 -7.62544,-30.4589 -4.95687,-8.64849 -12.39182,-15.79293 -22.30494,-21.43344 -82.35873,-46.81662 -164.90802,-93.63233 -247.26605,-140.44887 -22.30618,-12.59727 -43.6585,-12.22109 -65.77281,0.56369 -32.79081,18.99025 -197.12662,111.87007 -245.93176,139.88496 -20.20852,11.46867 -29.93108,29.14261 -29.93108,52.08083 v 282.77703 c 0,11.28104 2.47817,21.24574 7.24448,29.89503 4.95687,8.83693 12.58292,16.35763 22.6866,22.18587 48.99632,28.01482 213.14095,120.70707 245.93176,139.88491 22.11431,12.78263 43.65718,13.34655 65.77281,0.56338 82.35803,-47.0042 164.90732,-93.63224 247.26605,-140.44875 10.29415,-5.82826 17.72973,-13.16124 22.68598,-22.18591 4.76631,-8.64928 7.2444,-18.614 7.2444,-29.89501 z"
         style="display:block;fill:#000000;stroke-width:6.28601"
         id="path34197" />
    </clipPath>
    <inkscape:path-effect
       effect="powerclip"
       id="path-effect34199"
       is_visible="true"
       lpeversion="1"
       inverse="true"
       flatten="false"
       hide_clip="false"
       message="Use fill-rule evenodd on &lt;b&gt;fill and stroke&lt;/b&gt; dialog if no flatten result after convert clip to paths." />
    <linearGradient
       inkscape:collect="always"
       xlink:href="#linearGradient85468"
       id="linearGradient28951"
       x1="145.70872"
       y1="97.355453"
       x2="411.71683"
       y2="406.2681"
       gradientUnits="userSpaceOnUse" />
    <linearGradient
       inkscape:collect="always"
       id="linearGradient85468">
      <stop
         style="stop-color:#bb329e;stop-opacity:1;"
         offset="0"
         id="stop85464" />
      <stop
         style="stop-color:#fa7384;stop-opacity:1;"
         offset="1"
         id="stop85466" />
    </linearGradient>
    <linearGradient
       inkscape:collect="always"
       xlink:href="#linearGradient29373"
       id="linearGradient28953"
       x1="295.41153"
       y1="110.64268"
       x2="355.91046"
       y2="278.71069"
       gradientUnits="userSpaceOnUse" />
    <linearGradient
       inkscape:collect="always"
       id="linearGradient29373">
      <stop
         style="stop-color:#e23dbe;stop-opacity:1"
         offset="0"
         id="stop29369" />
      <stop
         style="stop-color:#f996a1;stop-opacity:1;"
         offset="1"
         id="stop29371" />
    </linearGradient>
    <linearGradient
       inkscape:collect="always"
       xlink:href="#linearGradient29373"
       id="linearGradient83542"
       x1="93.594872"
       y1="29.18689"
       x2="450.12634"
       y2="466.77966"
       gradientUnits="userSpaceOnUse" />
  </defs>
  <g
     inkscape:label="Layer 1"
     inkscape:groupmode="layer"
     id="layer1">
    <g
       id="g514"
       transform="matrix(0.13806048,0,0,0.13806048,-2.6354731,-0.06064733)">
      <path
         fill="#ebebeb"
         d="m 142.3205,102.15561 h 137.63324 v 54.81184 H 202.4445 l 5.07069,56.13987 h 72.43855 v 54.69111 H 157.29113 m 2.41462,27.52664 h 55.0533 l 3.86338,43.82532 61.33131,16.41941 v 57.22646 L 167.43253,381.40622"
         id="path2759"
         style="fill:url(#linearGradient28951);fill-opacity:1;stroke-width:1.20883;stroke-dasharray:none" />
      <path
         fill="#ffffff"
         d="M 417.10406,102.15561 H 279.71228 v 54.81184 h 132.32108 m -4.94997,56.13987 H 279.71228 v 54.81183 h 67.60931 l -6.39874,71.23124 -61.21057,16.41941 v 56.985 l 112.27975,-31.14858"
         id="path2756"
         style="fill:url(#linearGradient28953);fill-opacity:1;stroke-width:1.20883;stroke-dasharray:none" />
      <path
         id="path81059"
         style="fill:none;stroke:url(#linearGradient83542);stroke-width:39.7301;stroke-linecap:round;stroke-linejoin:round;stroke-dasharray:none;paint-order:stroke fill markers"
         inkscape:transform-center-x="0.077988833"
         inkscape:transform-center-y="5.5149528"
         d="M 479.46744,29.229813 C 488.38843,36.335534 447.90056,427.1419 444.35937,438.44174 440.81815,449.74159 292.68046,484.76686 281.57089,484.64483 270.46131,484.5228 123.15742,449.37665 119.83253,438.00139 116.50764,426.62612 71.961632,35.637321 81.016319,28.729052 90.07097,21.820777 470.54644,22.124093 479.46744,29.229813 Z"
         sodipodi:nodetypes="ssssss" />
    </g>
  </g>
</svg>
