<?xml version="1.0" encoding="UTF-8" standalone="no"?>
<!-- Created with Inkscape (http://www.inkscape.org/) -->

<svg
   width="70.0px"
   height="70.0px"
   viewBox="0 0 70.0 70.0"
   version="1.1"
   id="SVGRoot"
   sodipodi:docname="java.svg"
   inkscape:version="1.2.1 (9c6d41e410, 2022-07-14)"
   xmlns:inkscape="http://www.inkscape.org/namespaces/inkscape"
   xmlns:sodipodi="http://sodipodi.sourceforge.net/DTD/sodipodi-0.dtd"
   xmlns:xlink="http://www.w3.org/1999/xlink"
   xmlns="http://www.w3.org/2000/svg"
   xmlns:svg="http://www.w3.org/2000/svg">
  <sodipodi:namedview
     id="namedview765"
     pagecolor="#505050"
     bordercolor="#eeeeee"
     borderopacity="1"
     inkscape:showpageshadow="0"
     inkscape:pageopacity="0"
     inkscape:pagecheckerboard="0"
     inkscape:deskcolor="#505050"
     inkscape:document-units="px"
     showgrid="true"
     inkscape:zoom="6.2502245"
     inkscape:cx="44.638397"
     inkscape:cy="33.758788"
     inkscape:window-width="1920"
     inkscape:window-height="1057"
     inkscape:window-x="-8"
     inkscape:window-y="-8"
     inkscape:window-maximized="1"
     inkscape:current-layer="layer1">
    <inkscape:grid
       type="xygrid"
       id="grid888" />
  </sodipodi:namedview>
  <defs
     id="defs760">
    <linearGradient
       inkscape:collect="always"
       xlink:href="#linearGradient60915"
       id="linearGradient62585"
       x1="8.2844534"
       y1="-2.4065106"
       x2="348.36523"
       y2="464.29398"
       gradientUnits="userSpaceOnUse" />
    <linearGradient
       inkscape:collect="always"
       id="linearGradient60915">
      <stop
         style="stop-color:#6838d8;stop-opacity:1;"
         offset="0"
         id="stop60911" />
      <stop
         style="stop-color:#dc67cb;stop-opacity:1;"
         offset="1"
         id="stop60913" />
    </linearGradient>
    <linearGradient
       inkscape:collect="always"
       xlink:href="#linearGradient60915"
       id="linearGradient1736"
       gradientUnits="userSpaceOnUse"
       x1="8.2844534"
       y1="-2.4065106"
       x2="348.36523"
       y2="464.29398" />
    <linearGradient
       inkscape:collect="always"
       xlink:href="#linearGradient60915"
       id="linearGradient1738"
       gradientUnits="userSpaceOnUse"
       x1="8.2844534"
       y1="-2.4065106"
       x2="348.36523"
       y2="464.29398" />
    <linearGradient
       inkscape:collect="always"
       xlink:href="#linearGradient60915"
       id="linearGradient1740"
       gradientUnits="userSpaceOnUse"
       x1="8.2844534"
       y1="-2.4065106"
       x2="348.36523"
       y2="464.29398" />
    <linearGradient
       inkscape:collect="always"
       xlink:href="#linearGradient60915"
       id="linearGradient1742"
       gradientUnits="userSpaceOnUse"
       x1="8.2844534"
       y1="-2.4065106"
       x2="348.36523"
       y2="464.29398" />
    <linearGradient
       inkscape:collect="always"
       xlink:href="#linearGradient60915"
       id="linearGradient1744"
       gradientUnits="userSpaceOnUse"
       x1="8.2844534"
       y1="-2.4065106"
       x2="348.36523"
       y2="464.29398" />
    <linearGradient
       inkscape:collect="always"
       xlink:href="#linearGradient60915"
       id="linearGradient1746"
       gradientUnits="userSpaceOnUse"
       x1="8.2844534"
       y1="-2.4065106"
       x2="348.36523"
       y2="464.29398" />
    <linearGradient
       inkscape:collect="always"
       xlink:href="#linearGradient60915"
       id="linearGradient1748"
       gradientUnits="userSpaceOnUse"
       x1="8.2844534"
       y1="-2.4065106"
       x2="348.36523"
       y2="464.29398" />
    <linearGradient
       inkscape:collect="always"
       xlink:href="#linearGradient60915"
       id="linearGradient1750"
       gradientUnits="userSpaceOnUse"
       x1="8.2844534"
       y1="-2.4065106"
       x2="348.36523"
       y2="464.29398" />
    <linearGradient
       inkscape:collect="always"
       xlink:href="#linearGradient60915"
       id="linearGradient1752"
       gradientUnits="userSpaceOnUse"
       x1="8.2844534"
       y1="-2.4065106"
       x2="348.36523"
       y2="464.29398" />
    <linearGradient
       inkscape:collect="always"
       xlink:href="#linearGradient60915"
       id="linearGradient1754"
       gradientUnits="userSpaceOnUse"
       x1="8.2844534"
       y1="-2.4065106"
       x2="348.36523"
       y2="464.29398" />
    <linearGradient
       inkscape:collect="always"
       xlink:href="#linearGradient60915"
       id="linearGradient1756"
       gradientUnits="userSpaceOnUse"
       x1="8.2844534"
       y1="-2.4065106"
       x2="348.36523"
       y2="464.29398" />
    <linearGradient
       inkscape:collect="always"
       xlink:href="#linearGradient60915"
       id="linearGradient1758"
       gradientUnits="userSpaceOnUse"
       x1="8.2844534"
       y1="-2.4065106"
       x2="348.36523"
       y2="464.29398" />
    <linearGradient
       inkscape:collect="always"
       xlink:href="#linearGradient60915"
       id="linearGradient1760"
       gradientUnits="userSpaceOnUse"
       x1="8.2844534"
       y1="-2.4065106"
       x2="348.36523"
       y2="464.29398" />
    <linearGradient
       inkscape:collect="always"
       xlink:href="#linearGradient60915"
       id="linearGradient1762"
       gradientUnits="userSpaceOnUse"
       x1="8.2844534"
       y1="-2.4065106"
       x2="348.36523"
       y2="464.29398" />
    <linearGradient
       inkscape:collect="always"
       xlink:href="#linearGradient60915"
       id="linearGradient1764"
       gradientUnits="userSpaceOnUse"
       x1="8.2844534"
       y1="-2.4065106"
       x2="348.36523"
       y2="464.29398" />
    <linearGradient
       inkscape:collect="always"
       xlink:href="#linearGradient60915"
       id="linearGradient1766"
       gradientUnits="userSpaceOnUse"
       x1="8.2844534"
       y1="-2.4065106"
       x2="348.36523"
       y2="464.29398" />
  </defs>
  <g
     inkscape:label="Layer 1"
     inkscape:groupmode="layer"
     id="layer1">
    <g
       style="overflow:visible"
       id="g849"
       transform="matrix(0.14809603,0,0,0.14809603,8.2904397,1.484438)">
      <g
         id="g828"
         style="fill:url(#linearGradient62585);fill-opacity:1;stroke:url(#linearGradient62585);stroke-width:10.363;stroke-linecap:round;stroke-linejoin:round;stroke-dasharray:none;stroke-opacity:1">
	<path
   fill-rule="evenodd"
   clip-rule="evenodd"
   fill="#0074bd"
   d="m 117.151,349.592 c 0,0 -17.265,10.049 12.301,13.44 35.824,4.09 54.13,3.501 93.596,-3.959 0,0 10.397,6.504 24.892,12.137 -88.501,37.917 -200.296,-2.197 -130.789,-21.618 z"
   id="path2792"
   style="fill:url(#linearGradient1736);fill-opacity:1;stroke:url(#linearGradient1738);stroke-width:10.363;stroke-linecap:round;stroke-linejoin:round;stroke-dasharray:none;stroke-opacity:1" />

	<path
   fill-rule="evenodd"
   clip-rule="evenodd"
   fill="#0074bd"
   d="m 106.331,300.104 c 0,0 -19.367,14.339 10.221,17.397 38.271,3.951 68.483,4.275 120.792,-5.792 0,0 7.218,7.332 18.585,11.339 -106.986,31.294 -226.147,2.462 -149.598,-22.944 z"
   id="path2789"
   style="fill:url(#linearGradient1740);fill-opacity:1;stroke:url(#linearGradient1742);stroke-width:10.363;stroke-linecap:round;stroke-linejoin:round;stroke-dasharray:none;stroke-opacity:1" />

	<path
   fill-rule="evenodd"
   clip-rule="evenodd"
   fill="#ea2d2e"
   d="m 197.494,216.145 c 21.818,25.115 -5.721,47.697 -5.721,47.697 0,0 55.367,-28.577 29.945,-64.38 -23.752,-33.373 -41.962,-49.951 56.623,-107.124 10e-4,0 -154.754,38.641 -80.847,123.807 z"
   id="path2786"
   style="fill:url(#linearGradient1744);fill-opacity:1;stroke:url(#linearGradient1746);stroke-width:10.363;stroke-linecap:round;stroke-linejoin:round;stroke-dasharray:none;stroke-opacity:1" />

	<path
   fill-rule="evenodd"
   clip-rule="evenodd"
   fill="#0074bd"
   d="m 314.542,386.202 c 0,0 12.781,10.536 -14.077,18.684 -51.071,15.469 -212.604,20.135 -257.47,0.619 -16.117,-7.02 14.121,-16.75 23.635,-18.805 9.92,-2.146 15.584,-1.754 15.584,-1.754 -17.937,-12.631 -115.935,24.807 -49.772,35.544 180.429,29.246 328.895,-13.173 282.1,-34.288 z"
   id="path2783"
   style="fill:url(#linearGradient1748);fill-opacity:1;stroke:url(#linearGradient1750);stroke-width:10.363;stroke-linecap:round;stroke-linejoin:round;stroke-dasharray:none;stroke-opacity:1" />

	<path
   fill-rule="evenodd"
   clip-rule="evenodd"
   fill="#0074bd"
   d="m 125.46,248.822 c 0,0 -82.155,19.519 -29.092,26.613 22.412,2.999 67.063,2.309 108.685,-1.183 34.006,-2.854 68.133,-8.958 68.133,-8.958 0,0 -11.982,5.14 -20.657,11.06 -83.444,21.947 -244.612,11.726 -198.207,-10.712 39.227,-18.977 71.138,-16.82 71.138,-16.82 z"
   id="path2780"
   style="fill:url(#linearGradient1752);fill-opacity:1;stroke:url(#linearGradient1754);stroke-width:10.363;stroke-linecap:round;stroke-linejoin:round;stroke-dasharray:none;stroke-opacity:1" />

	<path
   fill-rule="evenodd"
   clip-rule="evenodd"
   fill="#0074bd"
   d="m 272.846,331.198 c 84.818,-44.063 45.597,-86.412 18.223,-80.708 -6.694,1.397 -9.697,2.607 -9.697,2.607 0,0 2.494,-3.907 7.243,-5.588 54.155,-19.03 95.794,56.146 -17.464,85.919 -0.001,0 1.302,-1.18 1.695,-2.23 z"
   id="path2777"
   style="fill:url(#linearGradient1756);fill-opacity:1;stroke:url(#linearGradient1758);stroke-width:10.363;stroke-linecap:round;stroke-linejoin:round;stroke-dasharray:none;stroke-opacity:1" />

	<path
   fill-rule="evenodd"
   clip-rule="evenodd"
   fill="#ea2d2e"
   d="m 221.719,0 c 0,0 46.963,46.99 -44.557,119.227 -73.393,57.969 -16.734,91.009 -0.026,128.778 C 134.291,209.352 102.865,175.321 123.944,143.653 154.898,97.174 240.663,74.632 221.719,0 Z"
   id="path2774"
   style="fill:url(#linearGradient1760);fill-opacity:1;stroke:url(#linearGradient1762);stroke-width:10.363;stroke-linecap:round;stroke-linejoin:round;stroke-dasharray:none;stroke-opacity:1" />

	<path
   fill-rule="evenodd"
   clip-rule="evenodd"
   fill="#0074bd"
   d="m 133.799,450.637 c 81.397,5.204 206.426,-2.896 209.385,-41.415 0,0 -5.688,14.602 -67.276,26.188 -69.481,13.081 -155.197,11.558 -206.016,3.167 0,0 10.411,8.617 63.907,12.06 z"
   id="path2771"
   style="fill:url(#linearGradient1764);fill-opacity:1;stroke:url(#linearGradient1766);stroke-width:10.363;stroke-linecap:round;stroke-linejoin:round;stroke-dasharray:none;stroke-opacity:1" />

	
	
	
	
	
</g>
    </g>
  </g>
</svg>
