<?xml version="1.0" encoding="UTF-8" standalone="no"?>
<!-- Created with Inkscape (http://www.inkscape.org/) -->

<svg
   width="70.0px"
   height="70.0px"
   viewBox="0 0 70.0 70.0"
   version="1.1"
   id="SVGRoot"
   sodipodi:docname="js.svg"
   inkscape:version="1.2.1 (9c6d41e410, 2022-07-14)"
   xmlns:inkscape="http://www.inkscape.org/namespaces/inkscape"
   xmlns:sodipodi="http://sodipodi.sourceforge.net/DTD/sodipodi-0.dtd"
   xmlns:xlink="http://www.w3.org/1999/xlink"
   xmlns="http://www.w3.org/2000/svg"
   xmlns:svg="http://www.w3.org/2000/svg">
  <sodipodi:namedview
     id="namedview765"
     pagecolor="#505050"
     bordercolor="#eeeeee"
     borderopacity="1"
     inkscape:showpageshadow="0"
     inkscape:pageopacity="0"
     inkscape:pagecheckerboard="0"
     inkscape:deskcolor="#505050"
     inkscape:document-units="px"
     showgrid="true"
     inkscape:zoom="6.2502245"
     inkscape:cx="44.638397"
     inkscape:cy="33.758788"
     inkscape:window-width="1920"
     inkscape:window-height="1057"
     inkscape:window-x="-8"
     inkscape:window-y="-8"
     inkscape:window-maximized="1"
     inkscape:current-layer="layer1">
    <inkscape:grid
       type="xygrid"
       id="grid888" />
  </sodipodi:namedview>
  <defs
     id="defs760">
    <clipPath
       clipPathUnits="userSpaceOnUse"
       id="clipPath57573">
      <path
         d="m 235.7153,-332.31482 c 0.20487,-3.59303 1.99077,-6.76781 4.69665,-9.01108 2.64792,-2.20525 6.20423,-3.555 10.10844,-3.555 3.88489,0 7.4412,1.34786 10.08911,3.555 2.70588,2.24327 4.48404,5.41805 4.69666,9.01108 0.20487,3.68807 -1.30463,7.129 -3.94289,9.67644 -2.70589,2.58545 -6.53278,4.22038 -10.84288,4.22038 -4.31009,0 -8.15633,-1.62352 -10.84289,-4.22038 -2.6479,-2.54744 -4.15548,-5.96936 -3.94288,-9.65744 z"
         style="clip-rule:evenodd;display:block;fill:#265787;fill-rule:nonzero;stroke-width:1.91686;stroke-linejoin:round;stroke-miterlimit:2"
         id="path57575" />
    </clipPath>
    <inkscape:path-effect
       effect="powerclip"
       id="path-effect57577"
       is_visible="true"
       lpeversion="1"
       inverse="true"
       flatten="false"
       hide_clip="false"
       message="Use fill-rule evenodd on &lt;b&gt;fill and stroke&lt;/b&gt; dialog if no flatten result after convert clip to paths." />
    <linearGradient
       inkscape:collect="always"
       xlink:href="#linearGradient49323"
       id="linearGradient54845"
       x1="242.09604"
       y1="228.08406"
       x2="579.34546"
       y2="570.95428"
       gradientUnits="userSpaceOnUse"
       gradientTransform="translate(-18.267676,-14.052058)" />
    <linearGradient
       inkscape:collect="always"
       id="linearGradient49323">
      <stop
         style="stop-color:#876be9;stop-opacity:1;"
         offset="0"
         id="stop49319" />
      <stop
         style="stop-color:#22c1d0;stop-opacity:1;"
         offset="1"
         id="stop49321" />
    </linearGradient>
    <linearGradient
       inkscape:collect="always"
       xlink:href="#linearGradient49323"
       id="linearGradient49325"
       x1="170.25142"
       y1="170.97267"
       x2="644.77661"
       y2="659.48224"
       gradientUnits="userSpaceOnUse"
       gradientTransform="matrix(0.92691955,0,0,0.92691955,24.45888,24.52219)" />
  </defs>
  <g
     inkscape:label="Layer 1"
     inkscape:groupmode="layer"
     id="layer1">
    <g
       id="g538"
       transform="matrix(0.10708332,0,0,0.10708332,1.3412641,1.0461466)">
      <path
         d="m 404.93232,478.13794 c 12.69,20.72 29.2,35.95 58.4,35.95 24.53,0 40.2,-12.26 40.2,-29.2 0,-20.3 -16.1,-27.49 -43.1,-39.3 l -14.8,-6.35 c -42.72,-18.2 -71.1,-41 -71.1,-89.2 0,-44.4 33.83,-78.2 86.7,-78.2 37.64,0 64.7,13.1 84.2,47.4 l -46.1,29.6 c -10.15,-18.2 -21.1,-25.37 -38.1,-25.37 -17.34,0 -28.33,11 -28.33,25.37 0,17.76 11,24.95 36.4,35.95 l 14.8,6.34 c 50.3,21.57 78.7,43.56 78.7,93 0,53.3 -41.87,82.5 -98.1,82.5 -54.98,0 -90.5,-26.2 -107.88,-60.54 z m -209.13,5.13 c 9.3,16.5 17.76,30.45 38.1,30.45 19.45,0 31.72,-7.61 31.72,-37.2 v -201.3 h 59.2 v 202.1 c 0,61.3 -35.94,89.2 -88.4,89.2 -47.4,0 -74.85,-24.53 -88.81,-54.075 z"
         id="path2750"
         style="fill:url(#linearGradient54845);fill-opacity:1" />
      <rect
         style="fill:none;fill-opacity:1;stroke:url(#linearGradient49325);stroke-width:57.5656;stroke-linecap:round;stroke-linejoin:round;stroke-dasharray:none;stroke-opacity:1;paint-order:stroke fill markers"
         id="rect49294"
         width="582.22327"
         height="586.13074"
         x="24.830109"
         y="23.628187" />
    </g>
  </g>
</svg>
