<?xml version="1.0" encoding="UTF-8" standalone="no"?>
<!-- Created with Inkscape (http://www.inkscape.org/) -->

<svg
   width="70.0px"
   height="70.0px"
   viewBox="0 0 70.0 70.0"
   version="1.1"
   id="SVGRoot"
   sodipodi:docname="video.svg"
   inkscape:version="1.2.1 (9c6d41e410, 2022-07-14)"
   xmlns:inkscape="http://www.inkscape.org/namespaces/inkscape"
   xmlns:sodipodi="http://sodipodi.sourceforge.net/DTD/sodipodi-0.dtd"
   xmlns:xlink="http://www.w3.org/1999/xlink"
   xmlns="http://www.w3.org/2000/svg"
   xmlns:svg="http://www.w3.org/2000/svg">
  <sodipodi:namedview
     id="namedview765"
     pagecolor="#505050"
     bordercolor="#eeeeee"
     borderopacity="1"
     inkscape:showpageshadow="0"
     inkscape:pageopacity="0"
     inkscape:pagecheckerboard="0"
     inkscape:deskcolor="#505050"
     inkscape:document-units="px"
     showgrid="true"
     inkscape:zoom="6.2502245"
     inkscape:cx="25.279092"
     inkscape:cy="34.558759"
     inkscape:window-width="1920"
     inkscape:window-height="1057"
     inkscape:window-x="-8"
     inkscape:window-y="-8"
     inkscape:window-maximized="1"
     inkscape:current-layer="layer1">
    <inkscape:grid
       type="xygrid"
       id="grid888" />
  </sodipodi:namedview>
  <defs
     id="defs760">
    <clipPath
       clipPathUnits="userSpaceOnUse"
       id="clipPath57573">
      <path
         d="m 235.7153,-332.31482 c 0.20487,-3.59303 1.99077,-6.76781 4.69665,-9.01108 2.64792,-2.20525 6.20423,-3.555 10.10844,-3.555 3.88489,0 7.4412,1.34786 10.08911,3.555 2.70588,2.24327 4.48404,5.41805 4.69666,9.01108 0.20487,3.68807 -1.30463,7.129 -3.94289,9.67644 -2.70589,2.58545 -6.53278,4.22038 -10.84288,4.22038 -4.31009,0 -8.15633,-1.62352 -10.84289,-4.22038 -2.6479,-2.54744 -4.15548,-5.96936 -3.94288,-9.65744 z"
         style="clip-rule:evenodd;display:block;fill:#265787;fill-rule:nonzero;stroke-width:1.91686;stroke-linejoin:round;stroke-miterlimit:2"
         id="path57575" />
    </clipPath>
    <inkscape:path-effect
       effect="powerclip"
       id="path-effect57577"
       is_visible="true"
       lpeversion="1"
       inverse="true"
       flatten="false"
       hide_clip="false"
       message="Use fill-rule evenodd on &lt;b&gt;fill and stroke&lt;/b&gt; dialog if no flatten result after convert clip to paths." />
    <clipPath
       clipPathUnits="userSpaceOnUse"
       id="clipPath34195">
      <path
         d="m 894.32109,448.69268 c 0,-11.46873 -2.47809,-21.80968 -7.62544,-30.4589 -4.95687,-8.64849 -12.39182,-15.79293 -22.30494,-21.43344 -82.35873,-46.81662 -164.90802,-93.63233 -247.26605,-140.44887 -22.30618,-12.59727 -43.6585,-12.22109 -65.77281,0.56369 -32.79081,18.99025 -197.12662,111.87007 -245.93176,139.88496 -20.20852,11.46867 -29.93108,29.14261 -29.93108,52.08083 v 282.77703 c 0,11.28104 2.47817,21.24574 7.24448,29.89503 4.95687,8.83693 12.58292,16.35763 22.6866,22.18587 48.99632,28.01482 213.14095,120.70707 245.93176,139.88491 22.11431,12.78263 43.65718,13.34655 65.77281,0.56338 82.35803,-47.0042 164.90732,-93.63224 247.26605,-140.44875 10.29415,-5.82826 17.72973,-13.16124 22.68598,-22.18591 4.76631,-8.64928 7.2444,-18.614 7.2444,-29.89501 z"
         style="display:block;fill:#000000;stroke-width:6.28601"
         id="path34197" />
    </clipPath>
    <inkscape:path-effect
       effect="powerclip"
       id="path-effect34199"
       is_visible="true"
       lpeversion="1"
       inverse="true"
       flatten="false"
       hide_clip="false"
       message="Use fill-rule evenodd on &lt;b&gt;fill and stroke&lt;/b&gt; dialog if no flatten result after convert clip to paths." />
    <linearGradient
       inkscape:collect="always"
       xlink:href="#linearGradient18535"
       id="linearGradient18537"
       x1="905.74298"
       y1="35.750034"
       x2="1004.6212"
       y2="129.19791"
       gradientUnits="userSpaceOnUse"
       gradientTransform="matrix(0.67494492,0,0,0.67494492,-609.56844,-21.880035)" />
    <linearGradient
       inkscape:collect="always"
       id="linearGradient18535">
      <stop
         style="stop-color:#957fcc;stop-opacity:1;"
         offset="0"
         id="stop18531" />
      <stop
         style="stop-color:#ff47db;stop-opacity:1;"
         offset="1"
         id="stop18533" />
    </linearGradient>
  </defs>
  <g
     inkscape:label="Layer 1"
     inkscape:groupmode="layer"
     id="layer1">
    <path
       style="line-height:normal;-inkscape-font-specification:Sans;text-indent:0;text-align:start;text-transform:none;fill:url(#linearGradient18537);fill-opacity:1;stroke-width:2.61953"
       d="M 1.6634104,1.9770404 C 1.1222598,2.5075814 1.217508,4.2064003 1.217508,4.2064003 V 56.596927 59.216449 H 3.8370367 26.757889 32.569962 L 27.330911,53.977398 H 26.757889 6.4565587 V 48.738345 H 11.695616 V 43.49929 H 6.4565587 V 17.304031 H 11.695616 V 12.06498 H 6.4565587 V 6.8259246 H 64.086137 V 12.06498 h -5.239051 v 5.239051 h 5.239051 V 43.49929 h -5.239051 v 5.239055 h 5.239051 v 5.239053 h -0.163708 c 1.228542,1.600531 2.147283,3.376567 2.537604,5.239051 h 2.865141 V 53.977398 4.2064003 c 0,0 0.118116,-1.707361 -0.423596,-2.240508 C 68.372151,1.4448604 66.705646,1.5868729 66.705646,1.5868729 H 3.8370367 c 0,0 -1.6479793,-0.1251705 -2.1736263,0.3901675 z M 16.934667,12.06498 c -1.234859,1.234856 -1.234859,4.004195 0,5.239051 1.234859,1.234856 4.004191,1.234856 5.239051,0 1.234859,-1.234856 1.234859,-4.004195 0,-5.239051 -1.23486,-1.234856 -4.004192,-1.234856 -5.239051,0 z m 10.478108,0 c -1.234859,1.234856 -1.234859,4.004195 0,5.239051 1.234859,1.234856 4.004192,1.234856 5.23905,0 1.23486,-1.234856 1.23486,-4.004195 0,-5.239051 -1.234858,-1.234856 -4.004191,-1.234856 -5.23905,0 z m 10.478102,0 c -1.23486,1.234856 -1.23486,4.004195 0,5.239051 1.234859,1.234856 4.004191,1.234856 5.239051,0 1.234858,-1.234856 1.234858,-4.004195 0,-5.239051 -1.23486,-1.234856 -4.004192,-1.234856 -5.239051,0 z m 10.478107,0 c -1.234858,1.234856 -1.234858,4.004195 0,5.239051 1.234859,1.234856 4.004192,1.234856 5.239051,0 1.23486,-1.234856 1.23486,-4.004195 0,-5.239051 -1.234859,-1.234856 -4.004192,-1.234856 -5.239051,0 z M 19.984068,28.117423 c -0.927152,0.927148 -0.348015,2.775402 -0.348015,2.775402 l 1.51108,7.897513 c 0,0 0.145815,1.156523 0.453563,1.799591 0.307748,0.643069 1.219585,1.487128 1.219585,1.487128 l 25.303118,25.243556 c 3.021776,3.02175 7.947503,3.02175 10.969266,0 3.021762,-3.021755 3.021762,-7.947517 0,-10.969271 L 33.224847,30.401662 c 0,0 -0.401748,-0.400971 -0.639908,-0.528431 -0.245343,-0.131305 -0.75172,-0.208309 -0.75172,-0.208309 l -9.168337,-1.800926 c 0,0 -1.75367,-0.673721 -2.680814,0.253427 z m 5.545921,5.640508 4.502308,0.900464 25.376647,25.376661 c 1.169484,1.169483 1.169484,2.432359 0,3.60185 -1.169484,1.169484 -2.432367,1.169484 -3.601851,0 L 51.643386,63.473185 26.430454,38.260239 Z m -8.595322,9.741359 c -1.234859,1.234857 -1.234859,4.004198 0,5.239055 1.234859,1.234857 4.004191,1.234857 5.239051,0 1.234859,-1.234857 1.234859,-4.004198 0,-5.239055 -1.23486,-1.234856 -4.004192,-1.234856 -5.239051,0 z"
       id="path2804"
       sodipodi:nodetypes="acccccccccccccccccccccccccccccccccaccasssssssssssssssssssszcczccsccscczccssscccsssss" />
  </g>
</svg>
